<svg width="78" height="61" viewBox="0 0 78 61" fill="none" xmlns="http://www.w3.org/2000/svg">
<g clip-path="url(#clip0_89_187)">
<path d="M17.7317 60.3828C17.8488 60.5 18.0832 60.5 18.2004 60.5C18.3176 60.5 18.3176 60.5 18.4348 60.5L38.8254 54.875L59.216 60.5C59.3332 60.5 59.3332 60.5 59.4504 60.5C59.5676 60.5 59.802 60.5 59.9192 60.3828L76.7942 50.0703C77.1457 49.8359 77.3801 49.3672 77.2629 49.0156L67.8879 16.2031C67.7707 15.8516 67.6535 15.7344 67.302 15.6172C67.0676 15.5 66.716 15.5 66.4817 15.6172L57.2238 20.8906C56.7551 21.125 56.6379 21.7109 56.8723 22.0625C57.1067 22.5312 57.6926 22.7656 58.1613 22.5312L66.3645 17.8438L75.2707 48.7812L60.1535 58.0391L56.6379 29.4453C56.5207 28.9766 56.052 28.625 55.5832 28.625C55.1145 28.7422 54.7629 29.2109 54.7629 29.6797L58.3957 58.2734L39.7629 53.2344V48.0781C39.7629 47.6094 39.2942 47.1406 38.8254 47.1406C38.3567 47.1406 37.8879 47.6094 37.8879 48.0781V53.2344L19.2551 58.2734L22.8879 29.6797C22.8879 29.2109 22.5363 28.7422 22.0676 28.625C21.5988 28.625 21.1301 28.9766 21.0129 29.4453L17.4973 58.0391L2.38009 48.7812L11.2863 17.8438L19.4895 22.5312C19.9582 22.7656 20.5442 22.5312 20.7785 22.0625C21.0129 21.7109 20.8957 21.125 20.427 20.8906L11.1692 15.6172C10.9348 15.5 10.5832 15.5 10.3488 15.6172C9.99728 15.7344 9.88009 15.8516 9.76291 16.2031L0.387906 49.0156C0.270718 49.3672 0.505093 49.8359 0.856656 50.0703L17.7317 60.3828ZM38.2395 44.3281C38.3567 44.4453 38.591 44.5625 38.8254 44.5625C39.0598 44.5625 39.2942 44.4453 39.4113 44.3281C40.1145 43.7422 54.7629 30.2656 54.7629 16.4375C54.7629 7.53125 47.7317 0.5 38.8254 0.5C29.9192 0.5 22.8879 7.53125 22.8879 16.4375C22.8879 30.0312 37.5363 43.7422 38.2395 44.3281ZM38.8254 2.375C46.7942 2.375 52.8879 8.46875 52.8879 16.4375C52.8879 27.9219 41.6379 39.5234 38.8254 42.3359C36.0129 39.5234 24.7629 27.6875 24.7629 16.4375C24.7629 8.46875 30.8567 2.375 38.8254 2.375ZM47.2629 16.4375C47.2629 11.75 43.5129 8 38.8254 8C34.1379 8 30.3879 11.75 30.3879 16.4375C30.3879 21.125 34.1379 24.875 38.8254 24.875C43.5129 24.875 47.2629 21.125 47.2629 16.4375ZM38.8254 23C35.1926 23 32.2629 20.0703 32.2629 16.4375C32.2629 12.8047 35.1926 9.875 38.8254 9.875C42.4582 9.875 45.3879 12.8047 45.3879 16.4375C45.3879 20.0703 42.4582 23 38.8254 23Z" fill="#22AA86"/>
</g>
<defs>
<clipPath id="clip0_89_187">
<rect width="76.88" height="60" fill="white" transform="matrix(1 0 0 -1 0.35498 60.5)"/>
</clipPath>
</defs>
</svg>
